<?xml version="1.0" encoding="UTF-8"?>
<!-- Square favicon for Google Search - brand blue + sail icon, self-contained -->
<svg xmlns="http://www.w3.org/2000/svg" viewBox="0 0 48 48" width="48" height="48">
  <rect width="48" height="48" fill="#0071BB"/>
  <g transform="translate(24,24) scale(0.24) translate(-100,-33.75)">
    <path fill="#FFFFFF" d="M104.469,31.65c1.156,0.399,4.213,1.323,4.213,1.323l-0.892-9.076c0,0-0.55-1.418,1.247-1.863c1.798-0.444,9.287-2.103,16.421-0.098c6.099,1.714,16.467,8.786,16.467,8.786s-8.842-10.062-16.264-14.127c-9.165-5.017-18.948-4.971-18.948-4.971s-0.405-3.874-2.1-3.809l-0.279,0.01c-1.693-0.065-2.1,3.806-2.1,3.806s-9.783-0.043-18.948,4.974c-7.424,4.062-16.264,14.127-16.264,14.127s10.369-7.072,16.467-8.785c7.135-2.006,14.622-0.348,16.42,0.096c1.797,0.445,1.25,1.865,1.25,1.865l-0.896,9.075c0,0,3.058-0.924,4.214-1.323L104.469,31.65z"/>
  </g>
</svg>
